<mxfile host="app.diagrams.net" modified="2024-01-09T23:48:51.722Z" agent="Mozilla/5.0 (Windows NT 10.0; Win64; x64) AppleWebKit/537.36 (KHTML, like Gecko) Chrome/120.0.0.0 Safari/537.36 Edg/120.0.0.0" version="22.1.17" etag="MmkdnYmq-UMs_ZZfeNAW" type="device">
  <diagram id="gX6sR0FsEBkSwfCQFb4N" name="Trang-1">
    <mxGraphModel dx="4920" dy="2064" grid="1" gridSize="10" guides="1" tooltips="1" connect="1" arrows="1" fold="1" page="0" pageScale="1" pageWidth="827" pageHeight="1169" background="none" math="0" shadow="0">
      <root>
        <mxCell id="0" />
        <mxCell id="1" parent="0" />
        <mxCell id="-Q3d0-Bmgez8fFhQrIDN-2" value="&lt;p style=&quot;margin:0px;margin-top:4px;margin-left:10px;text-align:left;&quot;&gt;&lt;b&gt;core&lt;/b&gt;&lt;/p&gt;&lt;p style=&quot;margin:0px;margin-top:4px;margin-left:10px;text-align:left;&quot;&gt;&lt;b&gt;&lt;br&gt;&lt;/b&gt;&lt;/p&gt;" style="html=1;shape=mxgraph.sysml.package;html=1;overflow=fill;whiteSpace=wrap;" vertex="1" parent="1">
          <mxGeometry x="-1190" y="-530" width="2240" height="1108" as="geometry" />
        </mxCell>
        <mxCell id="-Q3d0-Bmgez8fFhQrIDN-3" value="&lt;p style=&quot;margin:0px;margin-top:4px;margin-left:10px;text-align:left;&quot;&gt;&lt;b&gt;utility&lt;/b&gt;&lt;/p&gt;&lt;p style=&quot;margin:0px;margin-top:4px;margin-left:10px;text-align:left;&quot;&gt;&lt;b&gt;&lt;br&gt;&lt;/b&gt;&lt;/p&gt;" style="html=1;shape=mxgraph.sysml.package;html=1;overflow=fill;whiteSpace=wrap;" vertex="1" parent="1">
          <mxGeometry x="-1170" y="770" width="2150" height="660" as="geometry" />
        </mxCell>
        <mxCell id="node24" value="&lt;p style=&quot;margin:0px;margin-top:4px;text-align:center;&quot;&gt;&lt;b&gt;Coordinate&lt;/b&gt;&lt;/p&gt;&lt;hr size=&quot;1&quot;/&gt;&lt;p style=&quot;margin:0 0 0 4px;line-height:1.6;&quot;&gt;+ Coordinate(double, double): &lt;/p&gt;&lt;hr size=&quot;1&quot;/&gt;&lt;p style=&quot;margin:0 0 0 4px;line-height:1.6;&quot;&gt;- abs: double&lt;br/&gt;- ord: double&lt;/p&gt;&lt;hr size=&quot;1&quot;/&gt;&lt;p style=&quot;margin:0 0 0 4px;line-height:1.6;&quot;&gt;+ distance(Coordinate, Coordinate): double&lt;br/&gt;+ setAbs(double): void&lt;br/&gt;+ getAbs(): double&lt;br/&gt;+ setOrd(double): void&lt;br/&gt;+ toString(): String&lt;br/&gt;+ getOrd(): double&lt;/p&gt;" style="verticalAlign=top;align=left;overflow=fill;fontSize=14;fontFamily=Helvetica;html=1;rounded=0;shadow=0;comic=0;labelBackgroundColor=none;strokeWidth=1;" parent="1" vertex="1">
          <mxGeometry x="-110" y="-19.5" width="305" height="300" as="geometry" />
        </mxCell>
        <mxCell id="node7" value="&lt;p style=&quot;margin:0px;margin-top:4px;text-align:center;&quot;&gt;&lt;i&gt;&amp;lt;&amp;lt;annotation&amp;gt;&amp;gt;&lt;/i&gt;&lt;br/&gt;&lt;b&gt;CustomLogging&lt;/b&gt;&lt;/p&gt;&lt;hr size=&quot;1&quot;/&gt;&lt;p style=&quot;margin:0 0 0 4px;line-height:1.6;&quot;&gt;+ value(): String&lt;/p&gt;" style="verticalAlign=top;align=left;overflow=fill;fontSize=14;fontFamily=Helvetica;html=1;rounded=0;shadow=0;comic=0;labelBackgroundColor=none;strokeWidth=1;" parent="1" vertex="1">
          <mxGeometry x="10" y="1300" width="173" height="90" as="geometry" />
        </mxCell>
        <mxCell id="node28" value="&lt;p style=&quot;margin:0px;margin-top:4px;text-align:center;&quot;&gt;&lt;b&gt;DeviceParameters&lt;/b&gt;&lt;/p&gt;&lt;hr size=&quot;1&quot;/&gt;&lt;p style=&quot;margin:0 0 0 4px;line-height:1.6;&quot;&gt;+ DeviceParameters(int, int): &lt;/p&gt;&lt;hr size=&quot;1&quot;/&gt;&lt;p style=&quot;margin:0 0 0 4px;line-height:1.6;&quot;&gt;- weightCapacity: int&lt;br/&gt;- hasSafetyLock: boolean&lt;br/&gt;- isFunctional: boolean&lt;br/&gt;- batteryLevel: int&lt;/p&gt;&lt;hr size=&quot;1&quot;/&gt;&lt;p style=&quot;margin:0 0 0 4px;line-height:1.6;&quot;&gt;+ getWeightCapacity(): int&lt;br/&gt;+ isFunctional(): boolean&lt;br/&gt;+ setBatteryLevel(int): void&lt;br/&gt;+ getBatteryLevel(): int&lt;br/&gt;+ setFunctional(boolean): void&lt;br/&gt;+ toString(): String&lt;br/&gt;+ hasSafetyLock(): boolean&lt;br/&gt;+ setWeightCapacity(int): void&lt;br/&gt;+ setSafetyLock(boolean): void&lt;/p&gt;" style="verticalAlign=top;align=left;overflow=fill;fontSize=14;fontFamily=Helvetica;html=1;rounded=0;shadow=0;comic=0;labelBackgroundColor=none;strokeWidth=1;" parent="1" vertex="1">
          <mxGeometry x="788" y="-420" width="228" height="388" as="geometry" />
        </mxCell>
        <mxCell id="-Q3d0-Bmgez8fFhQrIDN-60" style="edgeStyle=orthogonalEdgeStyle;rounded=0;orthogonalLoop=1;jettySize=auto;html=1;exitX=1;exitY=0.5;exitDx=0;exitDy=0;" edge="1" parent="1" source="node9" target="node13">
          <mxGeometry relative="1" as="geometry" />
        </mxCell>
        <mxCell id="node9" value="&lt;p style=&quot;margin:0px;margin-top:4px;text-align:center;&quot;&gt;&lt;b&gt;Engineer&lt;/b&gt;&lt;/p&gt;&lt;hr size=&quot;1&quot;/&gt;&lt;p style=&quot;margin:0 0 0 4px;line-height:1.6;&quot;&gt;+ Engineer(String, double, Planet, Rocket): &lt;br/&gt;+ Engineer(String, double, Coordinate, Planet, Rocket): &lt;/p&gt;&lt;hr size=&quot;1&quot;/&gt;&lt;p style=&quot;margin:0 0 0 4px;line-height:1.6;&quot;&gt;- profession: Profession&lt;/p&gt;&lt;hr size=&quot;1&quot;/&gt;&lt;p style=&quot;margin:0 0 0 4px;line-height:1.6;&quot;&gt;+ equals(Object): boolean&lt;br/&gt;+ toString(): String&lt;br/&gt;+ enableZeroGravityDevice(ZeroGravityDevice, Rocket): void&lt;br/&gt;+ disableZeroGravityDevice(ZeroGravityDevice, Rocket): void&lt;br/&gt;+ checkZeroGravityDevice(ZeroGravityDevice): void&lt;br/&gt;+ hashCode(): int&lt;/p&gt;" style="verticalAlign=top;align=left;overflow=fill;fontSize=14;fontFamily=Helvetica;html=1;rounded=0;shadow=0;comic=0;labelBackgroundColor=none;strokeWidth=1;" parent="1" vertex="1">
          <mxGeometry x="-1160" y="-110.5" width="413" height="286" as="geometry" />
        </mxCell>
        <mxCell id="node21" value="&lt;p style=&quot;margin:0px;margin-top:4px;text-align:center;&quot;&gt;&lt;i&gt;&amp;lt;&amp;lt;interface&amp;gt;&amp;gt;&lt;/i&gt;&lt;br/&gt;&lt;b&gt;IEngineer&lt;/b&gt;&lt;/p&gt;&lt;hr size=&quot;1&quot;/&gt;&lt;p style=&quot;margin:0 0 0 4px;line-height:1.6;&quot;&gt;+ enableZeroGravityDevice(ZeroGravityDevice, Rocket): void&lt;br/&gt;+ checkZeroGravityDevice(ZeroGravityDevice): void&lt;br/&gt;+ disableZeroGravityDevice(ZeroGravityDevice, Rocket): void&lt;/p&gt;" style="verticalAlign=top;align=left;overflow=fill;fontSize=14;fontFamily=Helvetica;html=1;rounded=0;shadow=0;comic=0;labelBackgroundColor=none;strokeWidth=1;" parent="1" vertex="1">
          <mxGeometry x="-983" y="1265.5" width="413" height="139" as="geometry" />
        </mxCell>
        <mxCell id="node0" value="&lt;p style=&quot;margin:0px;margin-top:4px;text-align:center;&quot;&gt;&lt;i&gt;&amp;lt;&amp;lt;interface&amp;gt;&amp;gt;&lt;/i&gt;&lt;br/&gt;&lt;b&gt;IPersonFly&lt;/b&gt;&lt;/p&gt;&lt;hr size=&quot;1&quot;/&gt;&lt;p style=&quot;margin:0 0 0 4px;line-height:1.6;&quot;&gt;+ soarUp(): void&lt;br/&gt;+ flyDown(): void&lt;/p&gt;" style="verticalAlign=top;align=left;overflow=fill;fontSize=14;fontFamily=Helvetica;html=1;rounded=0;shadow=0;comic=0;labelBackgroundColor=none;strokeWidth=1;" parent="1" vertex="1">
          <mxGeometry x="-880" y="838" width="142" height="109" as="geometry" />
        </mxCell>
        <mxCell id="node20" value="&lt;p style=&quot;margin:0px;margin-top:4px;text-align:center;&quot;&gt;&lt;i&gt;&amp;lt;&amp;lt;interface&amp;gt;&amp;gt;&lt;/i&gt;&lt;br/&gt;&lt;b&gt;IPersonHug&lt;/b&gt;&lt;/p&gt;&lt;hr size=&quot;1&quot;/&gt;&lt;p style=&quot;margin:0 0 0 4px;line-height:1.6;&quot;&gt;+ hug(Person): void&lt;/p&gt;" style="verticalAlign=top;align=left;overflow=fill;fontSize=14;fontFamily=Helvetica;html=1;rounded=0;shadow=0;comic=0;labelBackgroundColor=none;strokeWidth=1;" parent="1" vertex="1">
          <mxGeometry x="520" y="850" width="157" height="79" as="geometry" />
        </mxCell>
        <mxCell id="node25" value="&lt;p style=&quot;margin:0px;margin-top:4px;text-align:center;&quot;&gt;&lt;i&gt;&amp;lt;&amp;lt;interface&amp;gt;&amp;gt;&lt;/i&gt;&lt;br/&gt;&lt;b&gt;IPersonJoke&lt;/b&gt;&lt;/p&gt;&lt;hr size=&quot;1&quot;/&gt;&lt;p style=&quot;margin:0 0 0 4px;line-height:1.6;&quot;&gt;+ playingAJoke(Person): void&lt;/p&gt;" style="verticalAlign=top;align=left;overflow=fill;fontSize=14;fontFamily=Helvetica;html=1;rounded=0;shadow=0;comic=0;labelBackgroundColor=none;strokeWidth=1;" parent="1" vertex="1">
          <mxGeometry x="-1130" y="850" width="217" height="79" as="geometry" />
        </mxCell>
        <mxCell id="node19" value="&lt;p style=&quot;margin:0px;margin-top:4px;text-align:center;&quot;&gt;&lt;i&gt;&amp;lt;&amp;lt;interface&amp;gt;&amp;gt;&lt;/i&gt;&lt;br/&gt;&lt;b&gt;IPersonJump&lt;/b&gt;&lt;/p&gt;&lt;hr size=&quot;1&quot;/&gt;&lt;p style=&quot;margin:0 0 0 4px;line-height:1.6;&quot;&gt;+ jump(): void&lt;br/&gt;+ jumpUp(Person): void&lt;/p&gt;" style="verticalAlign=top;align=left;overflow=fill;fontSize=14;fontFamily=Helvetica;html=1;rounded=0;shadow=0;comic=0;labelBackgroundColor=none;strokeWidth=1;" parent="1" vertex="1">
          <mxGeometry x="70" y="838" width="181" height="109" as="geometry" />
        </mxCell>
        <mxCell id="node14" value="&lt;p style=&quot;margin:0px;margin-top:4px;text-align:center;&quot;&gt;&lt;i&gt;&amp;lt;&amp;lt;interface&amp;gt;&amp;gt;&lt;/i&gt;&lt;br/&gt;&lt;b&gt;IPersonMove&lt;/b&gt;&lt;/p&gt;&lt;hr size=&quot;1&quot;/&gt;&lt;p style=&quot;margin:0 0 0 4px;line-height:1.6;&quot;&gt;+ chase(Person): void&lt;br/&gt;+ move(String, Coordinate): void&lt;br/&gt;+ runOrStop(Rocket): void&lt;br/&gt;+ stop(): void&lt;/p&gt;" style="verticalAlign=top;align=left;overflow=fill;fontSize=14;fontFamily=Helvetica;html=1;rounded=0;shadow=0;comic=0;labelBackgroundColor=none;strokeWidth=1;" parent="1" vertex="1">
          <mxGeometry x="700" y="838" width="239" height="169" as="geometry" />
        </mxCell>
        <mxCell id="node12" value="&lt;p style=&quot;margin:0px;margin-top:4px;text-align:center;&quot;&gt;&lt;i&gt;&amp;lt;&amp;lt;interface&amp;gt;&amp;gt;&lt;/i&gt;&lt;br/&gt;&lt;b&gt;IPersonRun&lt;/b&gt;&lt;/p&gt;&lt;hr size=&quot;1&quot;/&gt;&lt;p style=&quot;margin:0 0 0 4px;line-height:1.6;&quot;&gt;+ run(Coordinate, double): void&lt;/p&gt;" style="verticalAlign=top;align=left;overflow=fill;fontSize=14;fontFamily=Helvetica;html=1;rounded=0;shadow=0;comic=0;labelBackgroundColor=none;strokeWidth=1;" parent="1" vertex="1">
          <mxGeometry x="270" y="850" width="230" height="79" as="geometry" />
        </mxCell>
        <mxCell id="node23" value="&lt;p style=&quot;margin:0px;margin-top:4px;text-align:center;&quot;&gt;&lt;i&gt;&amp;lt;&amp;lt;interface&amp;gt;&amp;gt;&lt;/i&gt;&lt;br/&gt;&lt;b&gt;IPersonSee&lt;/b&gt;&lt;/p&gt;&lt;hr size=&quot;1&quot;/&gt;&lt;p style=&quot;margin:0 0 0 4px;line-height:1.6;&quot;&gt;+ see(): void&lt;/p&gt;" style="verticalAlign=top;align=left;overflow=fill;fontSize=14;fontFamily=Helvetica;html=1;rounded=0;shadow=0;comic=0;labelBackgroundColor=none;strokeWidth=1;" parent="1" vertex="1">
          <mxGeometry x="-710" y="853" width="140" height="79" as="geometry" />
        </mxCell>
        <mxCell id="node5" value="&lt;p style=&quot;margin:0px;margin-top:4px;text-align:center;&quot;&gt;&lt;i&gt;&amp;lt;&amp;lt;interface&amp;gt;&amp;gt;&lt;/i&gt;&lt;br/&gt;&lt;b&gt;IPersonShout&lt;/b&gt;&lt;/p&gt;&lt;hr size=&quot;1&quot;/&gt;&lt;p style=&quot;margin:0 0 0 4px;line-height:1.6;&quot;&gt;+ shout(): void&lt;/p&gt;" style="verticalAlign=top;align=left;overflow=fill;fontSize=14;fontFamily=Helvetica;html=1;rounded=0;shadow=0;comic=0;labelBackgroundColor=none;strokeWidth=1;" parent="1" vertex="1">
          <mxGeometry x="-110" y="853" width="156" height="79" as="geometry" />
        </mxCell>
        <mxCell id="node16" value="&lt;p style=&quot;margin:0px;margin-top:4px;text-align:center;&quot;&gt;&lt;i&gt;&amp;lt;&amp;lt;interface&amp;gt;&amp;gt;&lt;/i&gt;&lt;br/&gt;&lt;b&gt;IPersonStretchOut&lt;/b&gt;&lt;/p&gt;&lt;hr size=&quot;1&quot;/&gt;&lt;p style=&quot;margin:0 0 0 4px;line-height:1.6;&quot;&gt;+ stretchOut(): void&lt;/p&gt;" style="verticalAlign=top;align=left;overflow=fill;fontSize=14;fontFamily=Helvetica;html=1;rounded=0;shadow=0;comic=0;labelBackgroundColor=none;strokeWidth=1;" parent="1" vertex="1">
          <mxGeometry x="-540" y="853" width="194" height="79" as="geometry" />
        </mxCell>
        <mxCell id="node1" value="&lt;p style=&quot;margin:0px;margin-top:4px;text-align:center;&quot;&gt;&lt;i&gt;&amp;lt;&amp;lt;interface&amp;gt;&amp;gt;&lt;/i&gt;&lt;br/&gt;&lt;b&gt;IPersonWait&lt;/b&gt;&lt;/p&gt;&lt;hr size=&quot;1&quot;/&gt;&lt;p style=&quot;margin:0 0 0 4px;line-height:1.6;&quot;&gt;+ waiting(Person): void&lt;/p&gt;" style="verticalAlign=top;align=left;overflow=fill;fontSize=14;fontFamily=Helvetica;html=1;rounded=0;shadow=0;comic=0;labelBackgroundColor=none;strokeWidth=1;" parent="1" vertex="1">
          <mxGeometry x="-320" y="853" width="179" height="79" as="geometry" />
        </mxCell>
        <mxCell id="node4" value="&lt;p style=&quot;margin:0px;margin-top:4px;text-align:center;&quot;&gt;&lt;i&gt;&amp;lt;&amp;lt;interface&amp;gt;&amp;gt;&lt;/i&gt;&lt;br/&gt;&lt;b&gt;IZeroGravityDeviceLog&lt;/b&gt;&lt;/p&gt;&lt;hr size=&quot;1&quot;/&gt;&lt;p style=&quot;margin:0 0 0 4px;line-height:1.6;&quot;&gt;+ log(String): void&lt;/p&gt;" style="verticalAlign=top;align=left;overflow=fill;fontSize=14;fontFamily=Helvetica;html=1;rounded=0;shadow=0;comic=0;labelBackgroundColor=none;strokeWidth=1;" parent="1" vertex="1">
          <mxGeometry x="-480" y="1290" width="228" height="90" as="geometry" />
        </mxCell>
        <mxCell id="-Q3d0-Bmgez8fFhQrIDN-23" style="edgeStyle=orthogonalEdgeStyle;rounded=0;orthogonalLoop=1;jettySize=auto;html=1;" edge="1" parent="1" source="node13" target="node18">
          <mxGeometry relative="1" as="geometry">
            <Array as="points">
              <mxPoint x="-320" y="-260" />
              <mxPoint x="-320" y="-260" />
            </Array>
          </mxGeometry>
        </mxCell>
        <mxCell id="-Q3d0-Bmgez8fFhQrIDN-26" style="edgeStyle=elbowEdgeStyle;rounded=0;orthogonalLoop=1;jettySize=auto;html=1;strokeColor=#7F00FF;fillColor=#7F00FF;" edge="1" parent="1" source="node13" target="node24">
          <mxGeometry relative="1" as="geometry" />
        </mxCell>
        <mxCell id="-Q3d0-Bmgez8fFhQrIDN-36" style="edgeStyle=orthogonalEdgeStyle;rounded=0;orthogonalLoop=1;jettySize=auto;html=1;strokeColor=#7F00FF;" edge="1" parent="1" source="node13" target="node17">
          <mxGeometry relative="1" as="geometry">
            <Array as="points">
              <mxPoint x="15" y="380" />
              <mxPoint x="15" y="330" />
            </Array>
          </mxGeometry>
        </mxCell>
        <mxCell id="node13" value="&lt;p style=&quot;margin:0px;margin-top:4px;text-align:center;&quot;&gt;&lt;b&gt;Person&lt;/b&gt;&lt;/p&gt;&lt;hr size=&quot;1&quot;/&gt;&lt;p style=&quot;margin:0 0 0 4px;line-height:1.6;&quot;&gt;+ Person(String, double, Planet, Rocket): &lt;br/&gt;+ Person(String, double, Coordinate, Planet, Rocket): &lt;/p&gt;&lt;hr size=&quot;1&quot;/&gt;&lt;p style=&quot;margin:0 0 0 4px;line-height:1.6;&quot;&gt;# planet: Planet&lt;br/&gt;# speed: double&lt;br/&gt;# rocket: Rocket&lt;br/&gt;# weight: double&lt;br/&gt;~ lengthOfStep: double&lt;br/&gt;~ fixedDistance: double&lt;br/&gt;# coord: Coordinate&lt;br/&gt;# status: SttOfGravity&lt;br/&gt;# name: String&lt;/p&gt;&lt;hr size=&quot;1&quot;/&gt;&lt;p style=&quot;margin:0 0 0 4px;line-height:1.6;&quot;&gt;+ jump(): void&lt;br/&gt;+ getPlanet(): Planet&lt;br/&gt;+ runOrStop(Rocket): void&lt;br/&gt;+ toString(): String&lt;br/&gt;+ soarUp(): void&lt;br/&gt;+ getName(): String&lt;br/&gt;+ getRocket(): String&lt;br/&gt;+ chase(Person): void&lt;br/&gt;+ getCoord(): Coordinate&lt;br/&gt;+ hug(Person): void&lt;br/&gt;+ hashCode(): int&lt;br/&gt;+ equals(Object): boolean&lt;br/&gt;+ setCoord(Coordinate): void&lt;br/&gt;+ setSpeed(double): void&lt;br/&gt;+ stretchOut(): void&lt;br/&gt;+ getWeight(): double&lt;br/&gt;+ playingAJoke(Person): void&lt;br/&gt;+ setPlanet(Planet): void&lt;br/&gt;+ move(String, Coordinate): void&lt;br/&gt;+ flyDown(): void&lt;br/&gt;+ shout(): void&lt;br/&gt;+ jumpUp(Person): void&lt;br/&gt;+ setRocket(Rocket): void&lt;br/&gt;+ setWeight(double): void&lt;br/&gt;+ see(): void&lt;br/&gt;+ getSpeed(): double&lt;br/&gt;+ run(Coordinate, double): void&lt;br/&gt;+ waiting(Person): void&lt;br/&gt;+ setName(String): void&lt;br/&gt;+ stop(): void&lt;/p&gt;" style="verticalAlign=top;align=left;overflow=fill;fontSize=14;fontFamily=Helvetica;html=1;rounded=0;shadow=0;comic=0;labelBackgroundColor=none;strokeWidth=1;" parent="1" vertex="1">
          <mxGeometry x="-700" y="-480" width="370" height="1025" as="geometry" />
        </mxCell>
        <mxCell id="-Q3d0-Bmgez8fFhQrIDN-27" style="edgeStyle=orthogonalEdgeStyle;rounded=0;orthogonalLoop=1;jettySize=auto;html=1;" edge="1" parent="1" source="node6" target="node24">
          <mxGeometry relative="1" as="geometry">
            <Array as="points">
              <mxPoint x="60" y="1260" />
            </Array>
          </mxGeometry>
        </mxCell>
        <mxCell id="node6" value="&lt;p style=&quot;margin:0px;margin-top:4px;text-align:center;&quot;&gt;&lt;b&gt;Place&lt;/b&gt;&lt;/p&gt;&lt;hr size=&quot;1&quot;/&gt;&lt;p style=&quot;margin:0 0 0 4px;line-height:1.6;&quot;&gt;+ Place(String, Coordinate): &lt;/p&gt;&lt;hr size=&quot;1&quot;/&gt;&lt;p style=&quot;margin:0 0 0 4px;line-height:1.6;&quot;&gt;# coord: Coordinate&lt;br/&gt;# name: String&lt;/p&gt;&lt;hr size=&quot;1&quot;/&gt;&lt;p style=&quot;margin:0 0 0 4px;line-height:1.6;&quot;&gt;+ hashCode(): int&lt;br/&gt;+ positionMarker(): void&lt;br/&gt;+ equals(Object): boolean&lt;br/&gt;+ toString(): String&lt;/p&gt;" style="verticalAlign=top;align=left;overflow=fill;fontSize=14;fontFamily=Helvetica;html=1;rounded=0;shadow=0;comic=0;labelBackgroundColor=none;strokeWidth=1;" parent="1" vertex="1">
          <mxGeometry x="579" y="1140.5" width="211" height="239.5" as="geometry" />
        </mxCell>
        <mxCell id="node22" value="&lt;p style=&quot;margin:0px;margin-top:4px;text-align:center;&quot;&gt;&lt;i&gt;&amp;lt;&amp;lt;enumeration&amp;gt;&amp;gt;&lt;/i&gt;&lt;br/&gt;&lt;b&gt;Profession&lt;/b&gt;&lt;/p&gt;&lt;hr size=&quot;1&quot;/&gt;&lt;p style=&quot;margin:0 0 0 4px;line-height:1.6;&quot;&gt;+ Profession(): &lt;/p&gt;&lt;hr size=&quot;1&quot;/&gt;&lt;p style=&quot;margin:0 0 0 4px;line-height:1.6;&quot;&gt;+ AUSTRONAUT: &lt;br/&gt;+ ENGINEER: &lt;br/&gt;+ PROGRAMMER: &lt;/p&gt;&lt;hr size=&quot;1&quot;/&gt;&lt;p style=&quot;margin:0 0 0 4px;line-height:1.6;&quot;&gt;+ valueOf(String): Profession&lt;br/&gt;+ values(): Profession[]&lt;/p&gt;" style="verticalAlign=top;align=left;overflow=fill;fontSize=14;fontFamily=Helvetica;html=1;rounded=0;shadow=0;comic=0;labelBackgroundColor=none;strokeWidth=1;" parent="1" vertex="1">
          <mxGeometry x="-1000" y="1017.5" width="214" height="230" as="geometry" />
        </mxCell>
        <mxCell id="-Q3d0-Bmgez8fFhQrIDN-35" style="edgeStyle=orthogonalEdgeStyle;rounded=0;orthogonalLoop=1;jettySize=auto;html=1;" edge="1" parent="1" source="node17" target="node6">
          <mxGeometry relative="1" as="geometry">
            <Array as="points">
              <mxPoint x="650" y="500" />
              <mxPoint x="685" y="500" />
            </Array>
          </mxGeometry>
        </mxCell>
        <mxCell id="node17" value="&lt;p style=&quot;margin:0px;margin-top:4px;text-align:center;&quot;&gt;&lt;b&gt;Rocket&lt;/b&gt;&lt;/p&gt;&lt;hr size=&quot;1&quot;/&gt;&lt;p style=&quot;margin:0 0 0 4px;line-height:1.6;&quot;&gt;+ Rocket(String, Coordinate, int, int): &lt;/p&gt;&lt;hr size=&quot;1&quot;/&gt;&lt;p style=&quot;margin:0 0 0 4px;line-height:1.6;&quot;&gt;- rocketParameters: RocketParameters&lt;/p&gt;&lt;hr size=&quot;1&quot;/&gt;&lt;p style=&quot;margin:0 0 0 4px;line-height:1.6;&quot;&gt;+ move(Coordinate): void&lt;br/&gt;+ toString(): String&lt;br/&gt;+ hashCode(): int&lt;br/&gt;+ getCoord(): Coordinate&lt;br/&gt;+ launch(): void&lt;br/&gt;+ equals(Object): boolean&lt;br/&gt;+ getName(): String&lt;br/&gt;+ positionMarker(): void&lt;br/&gt;+ getRocketParameters(): RocketParameters&lt;br/&gt;+ descend(): void&lt;/p&gt;" style="verticalAlign=top;align=left;overflow=fill;fontSize=14;fontFamily=Helvetica;html=1;rounded=0;shadow=0;comic=0;labelBackgroundColor=none;strokeWidth=1;" parent="1" vertex="1">
          <mxGeometry x="360" y="20" width="308" height="329" as="geometry" />
        </mxCell>
        <mxCell id="node26" value="&lt;p style=&quot;margin:0px;margin-top:4px;text-align:center;&quot;&gt;&lt;b&gt;RocketException&lt;/b&gt;&lt;/p&gt;&lt;hr size=&quot;1&quot;/&gt;&lt;p style=&quot;margin:0 0 0 4px;line-height:1.6;&quot;&gt;+ RocketException(String): &lt;/p&gt;" style="verticalAlign=top;align=left;overflow=fill;fontSize=14;fontFamily=Helvetica;html=1;rounded=0;shadow=0;comic=0;labelBackgroundColor=none;strokeWidth=1;" parent="1" vertex="1">
          <mxGeometry x="776" y="310" width="204" height="68" as="geometry" />
        </mxCell>
        <mxCell id="node27" value="&lt;p style=&quot;margin:0px;margin-top:4px;text-align:center;&quot;&gt;&lt;b&gt;RocketParameters&lt;/b&gt;&lt;/p&gt;&lt;hr size=&quot;1&quot;/&gt;&lt;p style=&quot;margin:0 0 0 4px;line-height:1.6;&quot;&gt;+ RocketParameters(int, int): &lt;/p&gt;&lt;hr size=&quot;1&quot;/&gt;&lt;p style=&quot;margin:0 0 0 4px;line-height:1.6;&quot;&gt;- fuelCapacity: int&lt;br/&gt;- payloadCapacity: int&lt;/p&gt;&lt;hr size=&quot;1&quot;/&gt;&lt;p style=&quot;margin:0 0 0 4px;line-height:1.6;&quot;&gt;+ getPayloadCapacity(): int&lt;br/&gt;+ getFuelCapacity(): int&lt;/p&gt;" style="verticalAlign=top;align=left;overflow=fill;fontSize=14;fontFamily=Helvetica;html=1;rounded=0;shadow=0;comic=0;labelBackgroundColor=none;strokeWidth=1;" parent="1" vertex="1">
          <mxGeometry x="780" y="50" width="216" height="161" as="geometry" />
        </mxCell>
        <mxCell id="node3" value="&lt;p style=&quot;margin:0px;margin-top:4px;text-align:center;&quot;&gt;&lt;i&gt;&amp;lt;&amp;lt;enumeration&amp;gt;&amp;gt;&lt;/i&gt;&lt;br/&gt;&lt;b&gt;SttOfDevice&lt;/b&gt;&lt;/p&gt;&lt;hr size=&quot;1&quot;/&gt;&lt;p style=&quot;margin:0 0 0 4px;line-height:1.6;&quot;&gt;- SttOfDevice(String): &lt;/p&gt;&lt;hr size=&quot;1&quot;/&gt;&lt;p style=&quot;margin:0 0 0 4px;line-height:1.6;&quot;&gt;+ OFF: &lt;br/&gt;+ ON: &lt;br/&gt;- description: String&lt;/p&gt;&lt;hr size=&quot;1&quot;/&gt;&lt;p style=&quot;margin:0 0 0 4px;line-height:1.6;&quot;&gt;+ values(): SttOfDevice[]&lt;br/&gt;+ getDescription(): String&lt;br/&gt;+ valueOf(String): SttOfDevice&lt;/p&gt;" style="verticalAlign=top;align=left;overflow=fill;fontSize=14;fontFamily=Helvetica;html=1;rounded=0;shadow=0;comic=0;labelBackgroundColor=none;strokeWidth=1;" parent="1" vertex="1">
          <mxGeometry x="160" y="974.5" width="221" height="251" as="geometry" />
        </mxCell>
        <mxCell id="node8" value="&lt;p style=&quot;margin:0px;margin-top:4px;text-align:center;&quot;&gt;&lt;i&gt;&amp;lt;&amp;lt;enumeration&amp;gt;&amp;gt;&lt;/i&gt;&lt;br/&gt;&lt;b&gt;SttOfFalling&lt;/b&gt;&lt;/p&gt;&lt;hr size=&quot;1&quot;/&gt;&lt;p style=&quot;margin:0 0 0 4px;line-height:1.6;&quot;&gt;- SttOfFalling(String): &lt;/p&gt;&lt;hr size=&quot;1&quot;/&gt;&lt;p style=&quot;margin:0 0 0 4px;line-height:1.6;&quot;&gt;+ CRIPPLED: &lt;br/&gt;- description: String&lt;br/&gt;+ SAFE_WITH_SLIGHT_FRIGHT: &lt;/p&gt;&lt;hr size=&quot;1&quot;/&gt;&lt;p style=&quot;margin:0 0 0 4px;line-height:1.6;&quot;&gt;+ valueOf(String): SttOfFalling&lt;br/&gt;+ getDescription(): String&lt;br/&gt;+ values(): SttOfFalling[]&lt;/p&gt;" style="verticalAlign=top;align=left;overflow=fill;fontSize=14;fontFamily=Helvetica;html=1;rounded=0;shadow=0;comic=0;labelBackgroundColor=none;strokeWidth=1;" parent="1" vertex="1">
          <mxGeometry x="-380" y="989" width="227" height="251" as="geometry" />
        </mxCell>
        <mxCell id="node10" value="&lt;p style=&quot;margin:0px;margin-top:4px;text-align:center;&quot;&gt;&lt;i&gt;&amp;lt;&amp;lt;enumeration&amp;gt;&amp;gt;&lt;/i&gt;&lt;br/&gt;&lt;b&gt;SttOfGravity&lt;/b&gt;&lt;/p&gt;&lt;hr size=&quot;1&quot;/&gt;&lt;p style=&quot;margin:0 0 0 4px;line-height:1.6;&quot;&gt;- SttOfGravity(String): &lt;/p&gt;&lt;hr size=&quot;1&quot;/&gt;&lt;p style=&quot;margin:0 0 0 4px;line-height:1.6;&quot;&gt;+ WEIGHTED: &lt;br/&gt;- description: String&lt;br/&gt;+ WEIGHTLESS: &lt;/p&gt;&lt;hr size=&quot;1&quot;/&gt;&lt;p style=&quot;margin:0 0 0 4px;line-height:1.6;&quot;&gt;+ getDescription(): String&lt;br/&gt;+ values(): SttOfGravity[]&lt;br/&gt;+ valueOf(String): SttOfGravity&lt;/p&gt;" style="verticalAlign=top;align=left;overflow=fill;fontSize=14;fontFamily=Helvetica;html=1;rounded=0;shadow=0;comic=0;labelBackgroundColor=none;strokeWidth=1;" parent="1" vertex="1">
          <mxGeometry x="-670" y="989" width="223" height="251" as="geometry" />
        </mxCell>
        <mxCell id="-Q3d0-Bmgez8fFhQrIDN-15" style="edgeStyle=orthogonalEdgeStyle;rounded=0;orthogonalLoop=1;jettySize=auto;html=1;exitX=0.25;exitY=1;exitDx=0;exitDy=0;" edge="1" parent="1" source="node15" target="node13">
          <mxGeometry relative="1" as="geometry">
            <Array as="points">
              <mxPoint x="-515" y="-680" />
            </Array>
          </mxGeometry>
        </mxCell>
        <mxCell id="-Q3d0-Bmgez8fFhQrIDN-16" style="edgeStyle=orthogonalEdgeStyle;rounded=0;orthogonalLoop=1;jettySize=auto;html=1;exitX=0;exitY=0.5;exitDx=0;exitDy=0;" edge="1" parent="1" source="node15" target="node9">
          <mxGeometry relative="1" as="geometry" />
        </mxCell>
        <mxCell id="-Q3d0-Bmgez8fFhQrIDN-17" style="edgeStyle=orthogonalEdgeStyle;rounded=0;orthogonalLoop=1;jettySize=auto;html=1;exitX=0.5;exitY=1;exitDx=0;exitDy=0;" edge="1" parent="1" source="node15" target="node18">
          <mxGeometry relative="1" as="geometry">
            <Array as="points">
              <mxPoint x="-150" y="-680" />
            </Array>
          </mxGeometry>
        </mxCell>
        <mxCell id="-Q3d0-Bmgez8fFhQrIDN-18" style="edgeStyle=orthogonalEdgeStyle;rounded=0;orthogonalLoop=1;jettySize=auto;html=1;exitX=1;exitY=1;exitDx=0;exitDy=0;" edge="1" parent="1" source="node15" target="node11">
          <mxGeometry relative="1" as="geometry">
            <Array as="points">
              <mxPoint x="311" y="-680" />
            </Array>
          </mxGeometry>
        </mxCell>
        <mxCell id="-Q3d0-Bmgez8fFhQrIDN-19" style="edgeStyle=orthogonalEdgeStyle;rounded=0;orthogonalLoop=1;jettySize=auto;html=1;exitX=0.75;exitY=1;exitDx=0;exitDy=0;" edge="1" parent="1" source="node15" target="node24">
          <mxGeometry relative="1" as="geometry">
            <Array as="points">
              <mxPoint x="43" y="-680" />
            </Array>
          </mxGeometry>
        </mxCell>
        <mxCell id="-Q3d0-Bmgez8fFhQrIDN-20" style="edgeStyle=orthogonalEdgeStyle;rounded=0;orthogonalLoop=1;jettySize=auto;html=1;exitX=1;exitY=0.5;exitDx=0;exitDy=0;" edge="1" parent="1" source="node15" target="node17">
          <mxGeometry relative="1" as="geometry">
            <Array as="points">
              <mxPoint x="1140" y="-735" />
              <mxPoint x="1140" y="245" />
            </Array>
          </mxGeometry>
        </mxCell>
        <mxCell id="node15" value="&lt;p style=&quot;margin:0px;margin-top:4px;text-align:center;&quot;&gt;&lt;b&gt;Universe&lt;/b&gt;&lt;/p&gt;&lt;hr size=&quot;1&quot;/&gt;&lt;p style=&quot;margin:0 0 0 4px;line-height:1.6;&quot;&gt;+ Universe(): &lt;/p&gt;&lt;hr size=&quot;1&quot;/&gt;&lt;p style=&quot;margin:0 0 0 4px;line-height:1.6;&quot;&gt;+ main(String[]): void&lt;/p&gt;" style="verticalAlign=top;align=left;overflow=fill;fontSize=14;fontFamily=Helvetica;html=1;rounded=0;shadow=0;comic=0;labelBackgroundColor=none;strokeWidth=1;" parent="1" vertex="1">
          <mxGeometry x="-290" y="-790" width="370" height="110" as="geometry" />
        </mxCell>
        <mxCell id="node2" value="&lt;p style=&quot;margin:0px;margin-top:4px;text-align:center;&quot;&gt;&lt;b&gt;ZeroGravityException&lt;/b&gt;&lt;/p&gt;&lt;hr size=&quot;1&quot;/&gt;&lt;p style=&quot;margin:0 0 0 4px;line-height:1.6;&quot;&gt;+ ZeroGravityException(String): &lt;/p&gt;" style="verticalAlign=top;align=left;overflow=fill;fontSize=14;fontFamily=Helvetica;html=1;rounded=0;shadow=0;comic=0;labelBackgroundColor=none;strokeWidth=1;" parent="1" vertex="1">
          <mxGeometry x="520" y="-450" width="234" height="68" as="geometry" />
        </mxCell>
        <mxCell id="node18" value="&lt;p style=&quot;margin:0px;margin-top:4px;text-align:center;&quot;&gt;&lt;b&gt;Planet&lt;/b&gt;&lt;/p&gt;&lt;hr size=&quot;1&quot;/&gt;&lt;p style=&quot;margin:0 0 0 4px;line-height:1.6;&quot;&gt;+ Planet(String, double, double): &lt;/p&gt;&lt;hr size=&quot;1&quot;/&gt;&lt;p style=&quot;margin:0 0 0 4px;line-height:1.6;&quot;&gt;- gravity: double&lt;br/&gt;- name: String&lt;br/&gt;- statusOfFalling: SttOfFalling&lt;br/&gt;- speed: double&lt;/p&gt;&lt;hr size=&quot;1&quot;/&gt;&lt;p style=&quot;margin:0 0 0 4px;line-height:1.6;&quot;&gt;+ toString(): String&lt;br/&gt;+ getName(): String&lt;br/&gt;+ getSpeed(): double&lt;br/&gt;+ equals(Object): boolean&lt;br/&gt;+ getGravity(): double&lt;br/&gt;+ damage(Person): double&lt;br/&gt;+ getSttOfFalling(): SttOfFalling&lt;br/&gt;+ hashCode(): int&lt;/p&gt;" style="verticalAlign=top;align=left;overflow=fill;fontSize=14;fontFamily=Helvetica;html=1;rounded=0;shadow=0;comic=0;labelBackgroundColor=none;strokeWidth=1;" parent="1" vertex="1">
          <mxGeometry x="-270" y="-440" width="240" height="360" as="geometry" />
        </mxCell>
        <mxCell id="-Q3d0-Bmgez8fFhQrIDN-24" style="edgeStyle=orthogonalEdgeStyle;rounded=0;orthogonalLoop=1;jettySize=auto;html=1;exitX=0;exitY=0.5;exitDx=0;exitDy=0;entryX=0.75;entryY=0;entryDx=0;entryDy=0;" edge="1" parent="1" source="node11" target="node24">
          <mxGeometry relative="1" as="geometry">
            <Array as="points">
              <mxPoint x="119" y="-269" />
            </Array>
          </mxGeometry>
        </mxCell>
        <mxCell id="node11" value="&lt;p style=&quot;margin:0px;margin-top:4px;text-align:center;&quot;&gt;&lt;b&gt;ZeroGravityDevice&lt;/b&gt;&lt;/p&gt;&lt;hr size=&quot;1&quot;/&gt;&lt;p style=&quot;margin:0 0 0 4px;line-height:1.6;&quot;&gt;+ ZeroGravityDevice(String, Coordinate, int, int): &lt;/p&gt;&lt;hr size=&quot;1&quot;/&gt;&lt;p style=&quot;margin:0 0 0 4px;line-height:1.6;&quot;&gt;- state: SttOfDevice&lt;br/&gt;- coord: Coordinate&lt;br/&gt;- parameters: DeviceParameters&lt;br/&gt;- name: String&lt;/p&gt;&lt;hr size=&quot;1&quot;/&gt;&lt;p style=&quot;margin:0 0 0 4px;line-height:1.6;&quot;&gt;+ getName(): String&lt;br/&gt;+ hashCode(): int&lt;br/&gt;+ setCoord(Coordinate): void&lt;br/&gt;+ getState(): SttOfDevice&lt;br/&gt;+ getParameters(): DeviceParameters&lt;br/&gt;+ getCoord(): Coordinate&lt;br/&gt;+ toString(): String&lt;br/&gt;+ equals(Object): boolean&lt;br/&gt;+ turnOn(Person, Rocket): void&lt;br/&gt;+ turnOff(Person, Rocket): void&lt;/p&gt;" style="verticalAlign=top;align=left;overflow=fill;fontSize=14;fontFamily=Helvetica;html=1;rounded=0;shadow=0;comic=0;labelBackgroundColor=none;strokeWidth=1;" parent="1" vertex="1">
          <mxGeometry x="140" y="-470" width="341" height="401" as="geometry" />
        </mxCell>
        <mxCell id="-Q3d0-Bmgez8fFhQrIDN-14" value="" style="html=1;rounded=1;edgeStyle=orthogonalEdgeStyle;dashed=0;startArrow=circlePlus;startFill=0;endArrow=none;strokeColor=#820000;" edge="1" parent="1" source="node28" target="node11">
          <mxGeometry width="50" height="50" relative="1" as="geometry">
            <Array as="points">
              <mxPoint x="610" y="-190" />
              <mxPoint x="610" y="-190" />
            </Array>
            <mxPoint x="760" y="10" as="sourcePoint" />
            <mxPoint x="612" y="10" as="targetPoint" />
          </mxGeometry>
        </mxCell>
        <mxCell id="-Q3d0-Bmgez8fFhQrIDN-21" value="" style="html=1;rounded=1;edgeStyle=orthogonalEdgeStyle;dashed=0;startArrow=circlePlus;startFill=0;endArrow=none;strokeColor=#820000;" edge="1" parent="1" source="node27" target="node17">
          <mxGeometry width="50" height="50" relative="1" as="geometry">
            <Array as="points" />
            <mxPoint x="668" y="-240" as="sourcePoint" />
            <mxPoint x="520" y="-240" as="targetPoint" />
          </mxGeometry>
        </mxCell>
        <mxCell id="-Q3d0-Bmgez8fFhQrIDN-40" value="" style="html=1;rounded=1;edgeStyle=orthogonalEdgeStyle;dashed=0;startArrow=diamondThinstartSize=12;endArrow=openThin;endSize=12;strokeColor=#595959;" edge="1" parent="1" source="node13" target="node10">
          <mxGeometry width="50" height="50" relative="1" as="geometry">
            <Array as="points">
              <mxPoint x="-590" y="680" />
              <mxPoint x="-558" y="680" />
            </Array>
            <mxPoint x="340" y="680" as="sourcePoint" />
            <mxPoint x="760" y="680" as="targetPoint" />
          </mxGeometry>
        </mxCell>
        <mxCell id="-Q3d0-Bmgez8fFhQrIDN-41" value="1" style="edgeLabel;resizable=0;html=1;align=left;verticalAlign=top;strokeColor=default;" vertex="1" connectable="0" parent="-Q3d0-Bmgez8fFhQrIDN-40">
          <mxGeometry x="2418" y="1327" as="geometry" />
        </mxCell>
        <mxCell id="-Q3d0-Bmgez8fFhQrIDN-42" value="1" style="edgeLabel;resizable=0;html=1;align=left;verticalAlign=top;strokeColor=default;" vertex="1" connectable="0" parent="-Q3d0-Bmgez8fFhQrIDN-40">
          <mxGeometry x="2418" y="1327" as="geometry" />
        </mxCell>
        <mxCell id="-Q3d0-Bmgez8fFhQrIDN-43" value="profession" style="edgeLabel;resizable=0;html=1;align=left;verticalAlign=top;strokeColor=default;" vertex="1" connectable="0" parent="-Q3d0-Bmgez8fFhQrIDN-40">
          <mxGeometry x="2392" y="1327" as="geometry" />
        </mxCell>
        <mxCell id="-Q3d0-Bmgez8fFhQrIDN-44" value="" style="html=1;rounded=1;edgeStyle=orthogonalEdgeStyle;dashed=0;startArrow=diamondThinstartSize=12;endArrow=openThin;endSize=12;strokeColor=#595959;exitX=0.5;exitY=1;exitDx=0;exitDy=0;" edge="1" parent="1" source="node11" target="node3">
          <mxGeometry width="50" height="50" relative="1" as="geometry">
            <Array as="points">
              <mxPoint x="311" y="470" />
              <mxPoint x="260" y="470" />
            </Array>
            <mxPoint x="388.5" y="470" as="sourcePoint" />
            <mxPoint x="808.5" y="470" as="targetPoint" />
          </mxGeometry>
        </mxCell>
        <mxCell id="-Q3d0-Bmgez8fFhQrIDN-45" value="1" style="edgeLabel;resizable=0;html=1;align=left;verticalAlign=top;strokeColor=default;" vertex="1" connectable="0" parent="-Q3d0-Bmgez8fFhQrIDN-44">
          <mxGeometry x="2418" y="1327" as="geometry" />
        </mxCell>
        <mxCell id="-Q3d0-Bmgez8fFhQrIDN-46" value="1" style="edgeLabel;resizable=0;html=1;align=left;verticalAlign=top;strokeColor=default;" vertex="1" connectable="0" parent="-Q3d0-Bmgez8fFhQrIDN-44">
          <mxGeometry x="2418" y="1327" as="geometry" />
        </mxCell>
        <mxCell id="-Q3d0-Bmgez8fFhQrIDN-47" value="profession" style="edgeLabel;resizable=0;html=1;align=left;verticalAlign=top;strokeColor=default;" vertex="1" connectable="0" parent="-Q3d0-Bmgez8fFhQrIDN-44">
          <mxGeometry x="2392" y="1327" as="geometry" />
        </mxCell>
        <mxCell id="-Q3d0-Bmgez8fFhQrIDN-48" value="" style="html=1;rounded=1;edgeStyle=orthogonalEdgeStyle;dashed=0;startArrow=diamondThinstartSize=12;endArrow=openThin;endSize=12;strokeColor=#595959;" edge="1" parent="1" source="node18" target="node8">
          <mxGeometry width="50" height="50" relative="1" as="geometry">
            <Array as="points">
              <mxPoint x="-190" y="460" />
              <mxPoint x="-130" y="460" />
              <mxPoint x="-130" y="1115" />
            </Array>
            <mxPoint x="-120" y="460" as="sourcePoint" />
            <mxPoint x="300" y="460" as="targetPoint" />
          </mxGeometry>
        </mxCell>
        <mxCell id="-Q3d0-Bmgez8fFhQrIDN-49" value="1" style="edgeLabel;resizable=0;html=1;align=left;verticalAlign=top;strokeColor=default;" vertex="1" connectable="0" parent="-Q3d0-Bmgez8fFhQrIDN-48">
          <mxGeometry x="2418" y="1327" as="geometry" />
        </mxCell>
        <mxCell id="-Q3d0-Bmgez8fFhQrIDN-50" value="1" style="edgeLabel;resizable=0;html=1;align=left;verticalAlign=top;strokeColor=default;" vertex="1" connectable="0" parent="-Q3d0-Bmgez8fFhQrIDN-48">
          <mxGeometry x="2418" y="1327" as="geometry" />
        </mxCell>
        <mxCell id="-Q3d0-Bmgez8fFhQrIDN-51" value="profession" style="edgeLabel;resizable=0;html=1;align=left;verticalAlign=top;strokeColor=default;" vertex="1" connectable="0" parent="-Q3d0-Bmgez8fFhQrIDN-48">
          <mxGeometry x="2392" y="1327" as="geometry" />
        </mxCell>
        <mxCell id="-Q3d0-Bmgez8fFhQrIDN-52" value="" style="html=1;rounded=1;edgeStyle=orthogonalEdgeStyle;dashed=0;startArrow=diamondThinstartSize=12;endArrow=openThin;endSize=12;strokeColor=#595959;exitX=1;exitY=0.25;exitDx=0;exitDy=0;entryX=0.009;entryY=0.089;entryDx=0;entryDy=0;entryPerimeter=0;" edge="1" parent="1" source="node17" target="node27">
          <mxGeometry width="50" height="50" relative="1" as="geometry">
            <Array as="points" />
            <mxPoint x="1280" y="70" as="sourcePoint" />
            <mxPoint x="1700" y="70" as="targetPoint" />
          </mxGeometry>
        </mxCell>
        <mxCell id="-Q3d0-Bmgez8fFhQrIDN-53" value="1" style="edgeLabel;resizable=0;html=1;align=left;verticalAlign=top;strokeColor=default;" vertex="1" connectable="0" parent="-Q3d0-Bmgez8fFhQrIDN-52">
          <mxGeometry x="2418" y="1327" as="geometry" />
        </mxCell>
        <mxCell id="-Q3d0-Bmgez8fFhQrIDN-54" value="1" style="edgeLabel;resizable=0;html=1;align=left;verticalAlign=top;strokeColor=default;" vertex="1" connectable="0" parent="-Q3d0-Bmgez8fFhQrIDN-52">
          <mxGeometry x="2418" y="1327" as="geometry" />
        </mxCell>
        <mxCell id="-Q3d0-Bmgez8fFhQrIDN-55" value="profession" style="edgeLabel;resizable=0;html=1;align=left;verticalAlign=top;strokeColor=default;" vertex="1" connectable="0" parent="-Q3d0-Bmgez8fFhQrIDN-52">
          <mxGeometry x="2392" y="1327" as="geometry" />
        </mxCell>
        <mxCell id="-Q3d0-Bmgez8fFhQrIDN-56" value="" style="html=1;rounded=1;edgeStyle=orthogonalEdgeStyle;dashed=0;startArrow=diamondThinstartSize=12;endArrow=openThin;endSize=12;strokeColor=#595959;exitX=1;exitY=0.5;exitDx=0;exitDy=0;entryX=-0.015;entryY=0.391;entryDx=0;entryDy=0;entryPerimeter=0;" edge="1" parent="1" source="node11" target="node28">
          <mxGeometry width="50" height="50" relative="1" as="geometry">
            <Array as="points">
              <mxPoint x="660" y="-269" />
              <mxPoint x="785" y="-268" />
            </Array>
            <mxPoint x="1230" y="-140" as="sourcePoint" />
            <mxPoint x="1650" y="-140" as="targetPoint" />
          </mxGeometry>
        </mxCell>
        <mxCell id="-Q3d0-Bmgez8fFhQrIDN-57" value="1" style="edgeLabel;resizable=0;html=1;align=left;verticalAlign=top;strokeColor=default;" vertex="1" connectable="0" parent="-Q3d0-Bmgez8fFhQrIDN-56">
          <mxGeometry x="2418" y="1327" as="geometry" />
        </mxCell>
        <mxCell id="-Q3d0-Bmgez8fFhQrIDN-58" value="1" style="edgeLabel;resizable=0;html=1;align=left;verticalAlign=top;strokeColor=default;" vertex="1" connectable="0" parent="-Q3d0-Bmgez8fFhQrIDN-56">
          <mxGeometry x="2418" y="1327" as="geometry" />
        </mxCell>
        <mxCell id="-Q3d0-Bmgez8fFhQrIDN-59" value="profession" style="edgeLabel;resizable=0;html=1;align=left;verticalAlign=top;strokeColor=default;" vertex="1" connectable="0" parent="-Q3d0-Bmgez8fFhQrIDN-56">
          <mxGeometry x="2392" y="1327" as="geometry" />
        </mxCell>
        <mxCell id="-Q3d0-Bmgez8fFhQrIDN-61" value="" style="html=1;rounded=1;edgeStyle=orthogonalEdgeStyle;dashed=0;startArrow=diamondThinstartSize=12;endArrow=openThin;endSize=12;strokeColor=#595959;" edge="1" parent="1" source="node9" target="node22">
          <mxGeometry width="50" height="50" relative="1" as="geometry">
            <Array as="points">
              <mxPoint x="-1320" y="33" />
              <mxPoint x="-1320" y="1133" />
            </Array>
            <mxPoint x="-576" y="640" as="sourcePoint" />
            <mxPoint x="-156" y="640" as="targetPoint" />
          </mxGeometry>
        </mxCell>
        <mxCell id="-Q3d0-Bmgez8fFhQrIDN-62" value="1" style="edgeLabel;resizable=0;html=1;align=left;verticalAlign=top;strokeColor=default;" vertex="1" connectable="0" parent="-Q3d0-Bmgez8fFhQrIDN-61">
          <mxGeometry x="2418" y="1327" as="geometry" />
        </mxCell>
        <mxCell id="-Q3d0-Bmgez8fFhQrIDN-63" value="1" style="edgeLabel;resizable=0;html=1;align=left;verticalAlign=top;strokeColor=default;" vertex="1" connectable="0" parent="-Q3d0-Bmgez8fFhQrIDN-61">
          <mxGeometry x="2418" y="1327" as="geometry" />
        </mxCell>
        <mxCell id="-Q3d0-Bmgez8fFhQrIDN-64" value="profession" style="edgeLabel;resizable=0;html=1;align=left;verticalAlign=top;strokeColor=default;" vertex="1" connectable="0" parent="-Q3d0-Bmgez8fFhQrIDN-61">
          <mxGeometry x="2392" y="1327" as="geometry" />
        </mxCell>
        <mxCell id="-Q3d0-Bmgez8fFhQrIDN-65" value="" style="html=1;rounded=1;edgeStyle=orthogonalEdgeStyle;dashed=1;startArrow=none;endArrow=block;endSize=12;strokeColor=#008200;" edge="1" parent="1" source="node9" target="node21">
          <mxGeometry width="50" height="50" relative="1" as="geometry">
            <Array as="points">
              <mxPoint x="-1240" y="33" />
              <mxPoint x="-1240" y="1335" />
            </Array>
            <mxPoint x="-542" y="489.5" as="sourcePoint" />
            <mxPoint x="-575" y="974.5" as="targetPoint" />
          </mxGeometry>
        </mxCell>
        <mxCell id="-Q3d0-Bmgez8fFhQrIDN-66" value="" style="html=1;rounded=1;edgeStyle=orthogonalEdgeStyle;dashed=1;startArrow=none;endArrow=block;endSize=12;strokeColor=#008200;" edge="1" parent="1" source="node13" target="node25">
          <mxGeometry width="50" height="50" relative="1" as="geometry">
            <Array as="points">
              <mxPoint x="-520" y="660" />
              <mxPoint x="-1021" y="660" />
            </Array>
            <mxPoint x="-897" y="290" as="sourcePoint" />
            <mxPoint x="-930" y="775" as="targetPoint" />
          </mxGeometry>
        </mxCell>
        <mxCell id="-Q3d0-Bmgez8fFhQrIDN-67" value="" style="html=1;rounded=1;edgeStyle=orthogonalEdgeStyle;dashed=1;startArrow=none;endArrow=block;endSize=12;strokeColor=#008200;" edge="1" parent="1" source="node13" target="node0">
          <mxGeometry width="50" height="50" relative="1" as="geometry">
            <Array as="points">
              <mxPoint x="-520" y="660" />
              <mxPoint x="-809" y="660" />
            </Array>
            <mxPoint x="-510" y="555" as="sourcePoint" />
            <mxPoint x="-1011" y="860" as="targetPoint" />
          </mxGeometry>
        </mxCell>
        <mxCell id="-Q3d0-Bmgez8fFhQrIDN-68" value="" style="html=1;rounded=1;edgeStyle=orthogonalEdgeStyle;dashed=1;startArrow=none;endArrow=block;endSize=12;strokeColor=#008200;" edge="1" parent="1" source="node13" target="node23">
          <mxGeometry width="50" height="50" relative="1" as="geometry">
            <Array as="points">
              <mxPoint x="-520" y="660" />
              <mxPoint x="-640" y="660" />
            </Array>
            <mxPoint x="-500" y="565" as="sourcePoint" />
            <mxPoint x="-1001" y="870" as="targetPoint" />
          </mxGeometry>
        </mxCell>
        <mxCell id="-Q3d0-Bmgez8fFhQrIDN-69" value="" style="html=1;rounded=1;edgeStyle=orthogonalEdgeStyle;dashed=1;startArrow=none;endArrow=block;endSize=12;strokeColor=#008200;" edge="1" parent="1" source="node13" target="node16">
          <mxGeometry width="50" height="50" relative="1" as="geometry">
            <Array as="points">
              <mxPoint x="-520" y="660" />
              <mxPoint x="-440" y="660" />
            </Array>
            <mxPoint x="-490" y="575" as="sourcePoint" />
            <mxPoint x="-991" y="880" as="targetPoint" />
          </mxGeometry>
        </mxCell>
        <mxCell id="-Q3d0-Bmgez8fFhQrIDN-70" value="" style="html=1;rounded=1;edgeStyle=orthogonalEdgeStyle;dashed=1;startArrow=none;endArrow=block;endSize=12;strokeColor=#008200;" edge="1" parent="1" source="node13" target="node1">
          <mxGeometry width="50" height="50" relative="1" as="geometry">
            <Array as="points">
              <mxPoint x="-520" y="660" />
              <mxPoint x="-230" y="660" />
            </Array>
            <mxPoint x="-480" y="585" as="sourcePoint" />
            <mxPoint x="-981" y="890" as="targetPoint" />
          </mxGeometry>
        </mxCell>
        <mxCell id="-Q3d0-Bmgez8fFhQrIDN-71" value="" style="html=1;rounded=1;edgeStyle=orthogonalEdgeStyle;dashed=1;startArrow=none;endArrow=block;endSize=12;strokeColor=#008200;" edge="1" parent="1" source="node13" target="node5">
          <mxGeometry width="50" height="50" relative="1" as="geometry">
            <Array as="points">
              <mxPoint x="-520" y="660" />
              <mxPoint x="-32" y="660" />
            </Array>
            <mxPoint x="-470" y="595" as="sourcePoint" />
            <mxPoint x="-971" y="900" as="targetPoint" />
          </mxGeometry>
        </mxCell>
        <mxCell id="-Q3d0-Bmgez8fFhQrIDN-72" value="" style="html=1;rounded=1;edgeStyle=orthogonalEdgeStyle;dashed=1;startArrow=none;endArrow=block;endSize=12;strokeColor=#008200;" edge="1" parent="1" source="node13" target="node19">
          <mxGeometry width="50" height="50" relative="1" as="geometry">
            <Array as="points">
              <mxPoint x="-520" y="660" />
              <mxPoint x="161" y="660" />
            </Array>
            <mxPoint x="-460" y="605" as="sourcePoint" />
            <mxPoint x="-961" y="910" as="targetPoint" />
          </mxGeometry>
        </mxCell>
        <mxCell id="-Q3d0-Bmgez8fFhQrIDN-73" value="" style="html=1;rounded=1;edgeStyle=orthogonalEdgeStyle;dashed=1;startArrow=none;endArrow=block;endSize=12;strokeColor=#008200;" edge="1" parent="1" source="node13" target="node12">
          <mxGeometry width="50" height="50" relative="1" as="geometry">
            <Array as="points">
              <mxPoint x="-520" y="660" />
              <mxPoint x="410" y="660" />
            </Array>
            <mxPoint x="-450" y="615" as="sourcePoint" />
            <mxPoint x="-951" y="920" as="targetPoint" />
          </mxGeometry>
        </mxCell>
        <mxCell id="-Q3d0-Bmgez8fFhQrIDN-74" value="" style="html=1;rounded=1;edgeStyle=orthogonalEdgeStyle;dashed=1;startArrow=none;endArrow=block;endSize=12;strokeColor=#008200;" edge="1" parent="1" source="node13" target="node20">
          <mxGeometry width="50" height="50" relative="1" as="geometry">
            <Array as="points">
              <mxPoint x="-520" y="660" />
              <mxPoint x="600" y="660" />
            </Array>
            <mxPoint x="-440" y="555" as="sourcePoint" />
            <mxPoint x="420" y="860" as="targetPoint" />
          </mxGeometry>
        </mxCell>
        <mxCell id="-Q3d0-Bmgez8fFhQrIDN-75" value="" style="html=1;rounded=1;edgeStyle=orthogonalEdgeStyle;dashed=1;startArrow=none;endArrow=block;endSize=12;strokeColor=#008200;" edge="1" parent="1" source="node13" target="node14">
          <mxGeometry width="50" height="50" relative="1" as="geometry">
            <Array as="points">
              <mxPoint x="-520" y="660" />
              <mxPoint x="830" y="660" />
            </Array>
            <mxPoint x="-430" y="555" as="sourcePoint" />
            <mxPoint x="610" y="860" as="targetPoint" />
          </mxGeometry>
        </mxCell>
      </root>
    </mxGraphModel>
  </diagram>
</mxfile>
